<?xml version="1.0" encoding="UTF-8"?><!DOCTYPE svg PUBLIC "-//W3C//DTD SVG 1.1//EN" "http://www.w3.org/Graphics/SVG/1.1/DTD/svg11.dtd"><svg xmlns="http://www.w3.org/2000/svg" xmlns:xlink="http://www.w3.org/1999/xlink" xmlns:sketch="http://www.bohemiancoding.com/sketch/ns"><symbol id="sm_fb" viewBox="0 0 24 24">
    <!-- Generator: Sketch 3.3 (11970) - http://www.bohemiancoding.com/sketch -->
    <title>fb</title>
    <desc>Created with Sketch.</desc>
    
    <g id="5.TrainingCraft" stroke="none" stroke-width="1" fill="none" fill-rule="evenodd" sketch:type="MSPage">
        <g id="Regular-training-item" sketch:type="MSArtboardGroup" transform="translate(-875.000000, -1350.000000)" fill-opacity="0.200000003" fill="#01303E">
            <g id="share" sketch:type="MSLayerGroup" transform="translate(875.000000, 1350.000000)">
                <path d="M0,2.00494659 C0,0.897645164 0.897026226,0 2.00494659,0 L21.9950534,0 C23.1023548,0 24,0.897026226 24,2.00494659 L24,21.9950534 C24,23.1023548 23.1029738,24 21.9950534,24 L2.00494659,24 C0.897645164,24 0,23.1029738 0,21.9950534 L0,2.00494659 Z M16.6065,9.35 L13.5665546,9.35 L13.5665546,7.43726316 C13.5665546,6.76273684 14.0530688,6.53726316 14.4176984,6.53726316 L16.6065,6.53726316 L16.6065,3.5 L13.5665546,3.5 C10.2818158,3.5 9.55255667,5.75 9.55255667,7.32547368 L9.55255667,9.35 L7.6065,9.35 L7.6065,12.5 L9.55255667,12.5 L9.55255667,21.5 L13.5665546,21.5 L13.5665546,12.5 L16.2418704,12.5 L16.6065,9.35 Z" id="fb" sketch:type="MSShapeGroup"/>
            </g>
        </g>
    </g>
</symbol><symbol id="sm_gp" viewBox="0 0 24 24">
    <!-- Generator: Sketch 3.3 (11970) - http://www.bohemiancoding.com/sketch -->
    <title>g plus</title>
    <desc>Created with Sketch.</desc>
    
    <g id="5.TrainingCraft" stroke="none" stroke-width="1" fill="none" fill-rule="evenodd" sketch:type="MSPage">
        <g id="Regular-training-item" sketch:type="MSArtboardGroup" transform="translate(-943.000000, -1350.000000)" fill-opacity="0.200000003" fill="#01303E">
            <g id="share" sketch:type="MSLayerGroup" transform="translate(875.000000, 1350.000000)">
                <path d="M68,2.00494659 C68,0.897645164 68.8970262,0 70.0049466,0 L89.9950534,0 C91.1023548,0 92,0.897026226 92,2.00494659 L92,21.9950534 C92,23.1023548 91.1029738,24 89.9950534,24 L70.0049466,24 C68.8976452,24 68,23.1029738 68,21.9950534 L68,2.00494659 Z M80.4996654,13.329535 L79.620331,12.6466363 C79.3525806,12.4245074 78.9861854,12.1313485 78.9861854,11.5947801 C78.9861854,11.0559343 79.3525806,10.7133106 79.670294,10.3961666 C80.6946777,9.58985498 81.7179937,8.73194346 81.7179937,6.92359635 C81.7179937,5.06421867 80.5480626,4.08623938 79.9872957,3.62198213 L81.4992099,3.62198213 L83.0859975,2.62499983 L78.2784475,2.62499983 C76.959268,2.62499983 75.0581833,2.93716177 73.6663368,4.08623938 C72.6170428,4.99112466 72.1055271,6.23913185 72.1055271,7.36258741 C72.1055271,9.26950823 73.5699694,11.2026916 76.1554474,11.2026916 C76.3998533,11.2026916 76.6668208,11.1787066 76.9356388,11.1537251 C76.8148593,11.4475245 76.6927275,11.6921439 76.6927275,12.1074346 C76.6927275,12.8647084 77.0820403,13.3293215 77.425091,13.7690243 C76.3266169,13.8447517 74.2755721,13.9662429 72.7634443,14.8956114 C71.3236988,15.7519572 70.8852771,16.9981851 70.8852771,17.8779465 C70.8852771,19.6885711 72.5920613,21.375 76.1306795,21.375 C80.3273572,21.375 82.5487174,19.0531444 82.5487174,16.7543486 C82.5494292,15.0652863 81.5736562,14.2341356 80.4996654,13.329535 L80.4996654,13.329535 Z M77.3033863,10.5175154 C75.2040154,10.5175154 74.2528681,7.80364248 74.2528681,6.16596667 C74.2528681,5.52833357 74.3735053,4.87020284 74.7888671,4.35605377 C75.180315,3.86645916 75.8619327,3.54867461 76.4982847,3.54867461 C78.5221416,3.54867461 79.5717915,6.28703084 79.5717915,8.04811951 C79.5717915,8.48874753 79.5232519,9.26950823 78.9621291,9.83418967 C78.5695424,10.2255664 77.9129063,10.5175154 77.3033863,10.5175154 L77.3033863,10.5175154 Z M77.327229,20.3504028 C74.7166983,20.3504028 73.0332587,19.1015416 73.0332587,17.3652209 C73.0332587,15.629256 74.5940684,15.042013 75.1313485,14.8476413 C76.1554474,14.5028824 77.4735594,14.4548411 77.693482,14.4548411 C77.9374608,14.4548411 78.0595214,14.4548411 78.2536795,14.4793955 C80.1097121,15.7999985 80.9153831,16.4584851 80.9153831,17.708841 C80.9153831,19.2227481 79.670294,20.3504028 77.327229,20.3504028 L77.327229,20.3504028 Z M86.6617676,14.1610416 L86.6617676,11.701254 L89.1147227,11.701254 L89.1147227,10.4802923 L86.6617676,10.4802923 L86.6617676,8.03530848 L85.4541152,8.03530848 L85.4541152,10.4802923 L83.0132594,10.4802923 L83.0132594,11.701254 L85.4541152,11.701254 L85.4541152,14.1610416 L86.6617676,14.1610416 Z" id="g-plus" sketch:type="MSShapeGroup"/>
            </g>
        </g>
    </g>
</symbol><symbol id="sm_vk" viewBox="0 0 24 24">
    <!-- Generator: Sketch 3.3 (11970) - http://www.bohemiancoding.com/sketch -->
    <title>vk</title>
    <desc>Created with Sketch.</desc>
    
    <g id="5.TrainingCraft" stroke="none" stroke-width="1" fill="none" fill-rule="evenodd" sketch:type="MSPage">
        <g id="Regular-training-item" sketch:type="MSArtboardGroup" transform="translate(-909.000000, -1350.000000)" fill-opacity="0.200000003" fill="#01303E">
            <g id="share" sketch:type="MSLayerGroup" transform="translate(875.000000, 1350.000000)">
                <path d="M56.5306122,0 L35.4693878,0 C34.6578939,0 34,0.656553971 34,1.46639511 L34,22.4847251 C34,23.2945662 34.6578939,23.9511202 35.4693878,23.9511202 L56.5306122,23.9511202 C57.3421061,23.9511202 58,23.2945662 58,22.4847251 L58,1.46639511 C58,0.656553971 57.3421061,0 56.5306122,0 Z M46.8661061,9.75621996 C47.0961143,9.48078208 47.2111673,8.89251324 47.2111673,8.57978004 C47.2111673,7.73088391 46.6741061,7.34287576 45.6003755,7.34287576 L43.8167347,7.34287576 L43.8167347,10.169499 L45.680898,10.169499 C46.2406857,10.1694501 46.6358531,10.0317556 46.8661061,9.75621996 Z M51.517649,17.9134338 C50.8004408,18.8032912 49.6786122,19.5749084 47.3315102,19.5749084 L39.8530612,19.5749084 L39.8530612,4.32733198 L46.9811102,4.32733198 C48.6377959,4.32733198 49.8457306,4.73318126 50.6051102,5.54492872 C51.3643429,6.35667617 51.7440816,6.98722607 51.7440816,8.02997963 C51.7440816,8.78952342 51.5235755,9.47711609 51.0826122,10.0915845 C50.6414531,10.706053 49.984,10.9601303 49.1094694,11.1910876 C51.1419265,11.6677149 52.5934857,12.9891324 52.5934857,14.8805377 C52.5934857,16.0126436 52.2347592,17.0235764 51.517649,17.9134338 Z M45.9819755,13.4089124 L43.7959184,13.4089124 L43.7959184,16.1792261 L46.1430204,16.1792261 C46.7257796,16.1792261 47.1535673,16.039723 47.4259918,15.7602281 C47.6981224,15.4808798 47.8344327,15.1665336 47.8344327,14.8163585 C47.8344327,14.4662811 47.7018449,14.1443096 47.4374041,13.8501018 C47.1727673,13.5560407 46.6875265,13.4089124 45.9819755,13.4089124 Z" id="vk" sketch:type="MSShapeGroup"/>
            </g>
        </g>
    </g>
</symbol></svg>